<?xml version="1.0" encoding="UTF-8" standalone="no"?>
<!-- Created with Inkscape (http://www.inkscape.org/) -->

<svg
   xmlns:dc="http://purl.org/dc/elements/1.1/"
   xmlns:cc="http://creativecommons.org/ns#"
   xmlns:rdf="http://www.w3.org/1999/02/22-rdf-syntax-ns#"
   xmlns:svg="http://www.w3.org/2000/svg"
   xmlns="http://www.w3.org/2000/svg"
   xmlns:sodipodi="http://sodipodi.sourceforge.net/DTD/sodipodi-0.dtd"
   xmlns:inkscape="http://www.inkscape.org/namespaces/inkscape"
   id="svg2"
   xml:space="preserve"
   viewBox="0 0 64 64"
   version="1.1"
   inkscape:version="0.91 r13725"
   sodipodi:docname="motioneye-logo.svg"><defs
     id="defs8"><filter
       id="filter4285"
       inkscape:label="Drop Shadow"
       style="color-interpolation-filters:sRGB;"><feFlood
         id="feFlood4287"
         result="flood"
         flood-color="rgb(0,0,0)"
         flood-opacity="0.588235" /><feComposite
         id="feComposite4289"
         result="composite1"
         operator="in"
         in2="SourceGraphic"
         in="flood" /><feGaussianBlur
         id="feGaussianBlur4291"
         result="blur"
         stdDeviation="0.6"
         in="composite1" /><feOffset
         id="feOffset4293"
         result="offset"
         dy="-1"
         dx="0" /><feComposite
         id="feComposite4295"
         result="composite2"
         operator="over"
         in2="offset"
         in="SourceGraphic" /></filter><filter
       y="-0.16000000000000003"
       x="-0.10000000000000001"
       id="filter4315"
       inkscape:label="Drop Shadow"
       style="color-interpolation-filters:sRGB;"><feFlood
         id="feFlood4317"
         result="flood"
         flood-color="rgb(0,0,0)"
         flood-opacity="0.588235" /><feComposite
         id="feComposite4319"
         result="composite1"
         operator="in"
         in2="SourceGraphic"
         in="flood" /><feGaussianBlur
         id="feGaussianBlur4321"
         result="blur"
         stdDeviation="0.6"
         in="composite1" /><feOffset
         id="feOffset4323"
         result="offset"
         dy="-1"
         dx="0" /><feComposite
         id="feComposite4325"
         result="composite2"
         operator="over"
         in2="offset"
         in="SourceGraphic" /></filter><filter
       id="filter4327"
       inkscape:label="Drop Shadow"
       style="color-interpolation-filters:sRGB;"><feFlood
         id="feFlood4329"
         result="flood"
         flood-color="rgb(0,0,0)"
         flood-opacity="0.588235" /><feComposite
         id="feComposite4331"
         result="composite1"
         operator="in"
         in2="SourceGraphic"
         in="flood" /><feGaussianBlur
         id="feGaussianBlur4333"
         result="blur"
         stdDeviation="0.6"
         in="composite1" /><feOffset
         id="feOffset4335"
         result="offset"
         dy="-1"
         dx="0" /><feComposite
         id="feComposite4337"
         result="composite2"
         operator="over"
         in2="offset"
         in="SourceGraphic" /></filter><filter
       id="filter4339"
       inkscape:label="Drop Shadow"
       style="color-interpolation-filters:sRGB;"><feFlood
         id="feFlood4341"
         result="flood"
         flood-color="rgb(0,0,0)"
         flood-opacity="0.588235" /><feComposite
         id="feComposite4343"
         result="composite1"
         operator="in"
         in2="SourceGraphic"
         in="flood" /><feGaussianBlur
         id="feGaussianBlur4345"
         result="blur"
         stdDeviation="0.2"
         in="composite1" /><feOffset
         id="feOffset4347"
         result="offset"
         dy="-0.5"
         dx="0" /><feComposite
         id="feComposite4349"
         result="composite2"
         operator="over"
         in2="offset"
         in="SourceGraphic" /></filter></defs><sodipodi:namedview
     pagecolor="#ffffff"
     bordercolor="#666666"
     borderopacity="1"
     objecttolerance="10"
     gridtolerance="10"
     guidetolerance="10"
     inkscape:pageopacity="0"
     inkscape:pageshadow="2"
     inkscape:window-width="1793"
     inkscape:window-height="1057"
     id="namedview6"
     showgrid="false"
     showguides="true"
     inkscape:guide-bbox="true"
     inkscape:zoom="5.6568544"
     inkscape:cx="38.523953"
     inkscape:cy="19.344376"
     inkscape:window-x="119"
     inkscape:window-y="-8"
     inkscape:window-maximized="1"
     inkscape:current-layer="svg2"><sodipodi:guide
       position="30.915254,58.033898"
       orientation="0,1"
       id="guide25577" /><sodipodi:guide
       position="30.915254,5.9661017"
       orientation="0,1"
       id="guide25579" /></sodipodi:namedview><metadata
     id="metadata8"><rdf:RDF><cc:Work
         rdf:about=""><dc:format>image/svg+xml</dc:format><dc:type
           rdf:resource="http://purl.org/dc/dcmitype/StillImage" /><dc:title></dc:title></cc:Work></rdf:RDF></metadata><g
     inkscape:groupmode="layer"
     id="layer1"
     inkscape:label="Layer 1"
     style="display:inline" /><rect
     style="color:#000000;clip-rule:nonzero;display:inline;overflow:visible;visibility:visible;opacity:1;isolation:auto;mix-blend-mode:normal;color-interpolation:sRGB;color-interpolation-filters:linearRGB;solid-color:#000000;solid-opacity:1;fill:none;fill-opacity:1;fill-rule:nonzero;stroke:#ffffff;stroke-width:0;stroke-linecap:round;stroke-linejoin:round;stroke-miterlimit:4;stroke-dasharray:none;stroke-dashoffset:0;stroke-opacity:1;color-rendering:auto;image-rendering:auto;shape-rendering:auto;text-rendering:auto;enable-background:accumulate"
     id="rect25703"
     width="64.346718"
     height="64.076721"
     x="-0.17677669"
     y="-0.1699388" /><g
     id="g25691"
     transform="matrix(0.87327941,0,0,0.87327941,-4.8707827,65.950767)"
     style="fill:#ffffff"><g
       id="g25680"
       style="fill:#ffffff"><g
         id="g25653"
         transform="matrix(1.1807656,0,0,1.1227421,-100.80997,-9.6649947)"
         style="fill:#ffffff"><path
           sodipodi:nodetypes="ccsccccsccccscsssssssssssc"
           inkscape:connector-curvature="0"
           id="path25635"
           d="m 140.20285,-9.0696252 c -0.24429,0.04639 -1.65282,-1.8145868 -1.2285,-2.8687418 0.508,-1.460466 1.00743,-1.983045 1.08688,-4.434646 0.16501,-5.091689 0.47177,-11.100172 -0.0363,-13.723723 -0.51029,-2.234937 -1.36995,-4.366543 -2.68956,-5.776011 -1.38641,-1.219219 -4.05191,-2.50428 -7.84005,-3.779745 -2.38483,-0.705795 -4.63781,-1.673567 -6.19534,-2.837054 -1.27107,-1.402707 -1.61819,-2.958296 -1.74054,-2.999081 -0.12236,-0.04079 -1.44835,1.791742 -1.92342,2.843241 -0.99823,1.835682 -6.23279,2.478879 -9.59343,3.803058 -6.82487,2.724933 -6.70407,3.840266 -7.71178,6.947306 -0.69548,2.07885 -0.96038,10.186481 -0.76407,13.161431 0.52666,2.907274 1.83181,7.184285 2.37632,8.551017 0.5445,1.3667297 -0.71163,2.3822968 -0.77858,2.4492518 -0.15283,0.1528264 -2.27737,0.4036846 -3.181797,-0.4686842 -1.2349,-1.1911295 -2.098126,-3.0873416 -3.202822,-4.6319796 -1.805286,-2.524235 -2.925005,-7.455591 -3.520192,-10.583529 -0.436107,-2.291912 -0.321683,-6.624622 0.232029,-8.785881 0.878166,-3.427675 2.915313,-6.749434 5.442338,-8.874242 5.350794,-4.499127 11.687234,-6.631185 20.831294,-7.009226 13.85164,-0.572665 25.54014,5.434848 28.54137,14.66935 0.4179,1.285845 0.553,2.469031 0.64729,5.669028 0.11244,3.815924 0.0819,4.173915 -0.54138,6.346784 -0.78259,2.72822 -3.23157,6.133931 -4.3772,8.734187 -0.97038,2.202485 -0.64508,2.9925878 -3.83258,3.5978898 z"
           style="color:#000000;clip-rule:nonzero;display:inline;overflow:visible;visibility:visible;opacity:1;isolation:auto;mix-blend-mode:normal;color-interpolation:sRGB;color-interpolation-filters:linearRGB;solid-color:#000000;solid-opacity:1;fill:#ffffff;fill-opacity:1;fill-rule:nonzero;stroke:#ffffff;stroke-width:0;stroke-linecap:round;stroke-linejoin:round;stroke-miterlimit:4;stroke-dasharray:none;stroke-dashoffset:0;stroke-opacity:1;color-rendering:auto;image-rendering:auto;shape-rendering:auto;text-rendering:auto;enable-background:accumulate" /><path
           sodipodi:nodetypes="ssscccs"
           inkscape:connector-curvature="0"
           id="path25641"
           d="m 113.23115,-51.401091 c 2.16594,-2.557333 4.88465,-3.133513 8.28338,-3.138456 3.30413,-0.0048 6.19147,1.160378 8.32132,3.358053 l 1.73654,2.38898 c -3.5974,-1.1875 -5.4448,-1.25 -10.2297,-1.5 -3.49323,-0.125 -7.11146,0.375 -10.47969,1.6875 z"
           style="color:#000000;clip-rule:nonzero;display:inline;overflow:visible;visibility:visible;opacity:1;isolation:auto;mix-blend-mode:normal;color-interpolation:sRGB;color-interpolation-filters:linearRGB;solid-color:#000000;solid-opacity:1;fill:#ffffff;fill-opacity:1;fill-rule:nonzero;stroke:#ffffff;stroke-width:0;stroke-linecap:round;stroke-linejoin:round;stroke-miterlimit:4;stroke-dasharray:none;stroke-dashoffset:0;stroke-opacity:1;color-rendering:auto;image-rendering:auto;shape-rendering:auto;text-rendering:auto;enable-background:accumulate" /><path
           sodipodi:nodetypes="cccscsssssssscssccssssssscsssssssscsssssssssssssscscccccscssssss"
           inkscape:connector-curvature="0"
           id="path25647"
           d="m 119.20998,2.1599739 c -0.48614,-0.2706487 -3.21699,-1.89368145 -3.61768,-2.14933065 -2.9541,-2.02773365 -5.02644,-3.17132005 -7.35461,-5.28581765 -2.82653,-2.583288 -4.20298,-8.5210376 -4.95604,-13.1599016 -0.2944,-1.81352 -0.33105,-7.913478 -0.0606,-10.089972 0.43076,-3.466931 1.10189,-3.648245 2.0838,-5.167446 1.11307,-1.722134 1.82351,-2.086616 7.54119,-3.86891 1.4584,-0.45461 3.32782,-1.107002 4.15425,-1.44976 0.82643,-0.342758 2.05237,-0.811968 2.72431,-1.042689 1.45526,-0.499689 1.52115,-0.487864 5.07648,0.910991 1.325,0.521328 3.7426,1.354197 5.37243,1.850821 3.44077,1.048426 4.74551,1.658773 5.94557,2.781287 1.76755,1.65334 2.63988,2.517485 2.68625,7.209423 l 0.0269,2.721681 -1.22768,0.416104 c -0.67522,0.228856 -1.32221,0.416106 -1.43776,0.416106 -0.11554,0 -0.47573,-0.346046 -0.80042,-0.768989 l -0.59033,-0.768989 -4.60103,-0.121695 c -4.63574,-0.122613 -5.92686,-0.222516 -5.92686,-0.458602 0,-0.199627 2.89589,-1.493253 4.89894,-2.188413 0.99295,-0.3446 2.82258,-0.872372 4.06587,-1.172827 2.732,-0.660221 3.23278,-0.845872 3.23278,-1.198457 0,-0.236518 -0.34404,-0.257307 -2.69584,-0.1629 -4.53137,0.181901 -8.09359,0.968939 -11.24611,2.484696 l -1.30243,0.626218 -1.74795,-0.877161 c -2.15667,-1.082266 -3.80553,-1.629871 -6.08702,-2.021565 -2.17818,-0.373956 -7.02549,-0.460284 -7.35479,-0.130985 -0.37945,0.379446 0.0542,0.580328 2.97471,1.377987 2.59057,0.707544 6.67848,1.978413 9.42821,2.931087 1.10556,0.38303 1.12898,0.403184 0.61872,0.532444 -0.29168,0.07389 -2.87704,0.212607 -5.74524,0.308261 -5.04179,0.168141 -6.37686,0.32376 -6.66378,0.776747 -0.0747,0.117933 -0.17702,0.612172 -0.22736,1.098308 -0.0778,0.751409 -0.15173,0.892425 -0.49313,0.940876 -0.2233,0.03169 -0.79348,-0.184141 -1.28429,-0.486136 -1.09164,-0.671694 -1.40771,-0.690618 -1.40771,-0.08428 0,0.49895 0.44117,1.225064 1.3323,2.192803 1.2949,1.406216 1.79254,2.241364 2.01439,3.3806 0.44751,2.297982 1.03214,2.8297 3.49852,3.181894 1.48021,0.21137 6.01239,0.09558 7.18143,-0.183466 1.39091,-0.332015 1.72992,-1.053658 2.41537,-5.141591 0.44076,-2.628643 0.76924,-3.42391 1.44652,-3.502107 0.70291,-0.08116 0.96906,0.596545 1.39009,3.539645 0.46712,3.265328 0.91787,4.273101 2.19402,4.905313 0.7884,0.390574 1.15003,0.442349 3.53772,0.506501 5.35084,0.143765 6.80468,-0.487785 7.33001,-3.184169 0.34499,-1.77071 0.94435,-2.800972 2.89604,-4.978037 l 0.4998,-0.557515 -0.0987,3.005204 c -0.0543,1.652863 -0.18647,3.482501 -0.29369,4.065864 -0.54844,2.983727 -2.17838,7.3946606 -5.45356,9.8613916 -2.87284,3.0699945 -6.09293,5.10735046 -9.7334,7.2528719 -1.75491,1.0036603 -2.78131,1.6933315 -4.15853,0.9265874 z m 4.10501,-6.1939031 c 0.86245,-0.439989 1.64051,-1.38261 1.63957,-1.986348 -0.002,-1.448377 -2.61225,-5.4864288 -4.40925,-5.3137608 -1.58723,0.152513 -4.19592,3.9642778 -4.52651,5.0058648 -0.11685,0.368156 0.33973,1.031689 0.70991,1.031689 0.11218,0 0.67659,0.289097 1.25423,0.642436 0.57764,0.35334 1.36846,0.750575 1.75737,0.882745 0.96444,0.327762 2.66187,0.203056 3.57468,-0.262626 z"
           style="color:#000000;clip-rule:nonzero;display:inline;overflow:visible;visibility:visible;opacity:1;isolation:auto;mix-blend-mode:normal;color-interpolation:sRGB;color-interpolation-filters:linearRGB;solid-color:#000000;solid-opacity:1;fill:#ffffff;fill-opacity:1;fill-rule:nonzero;stroke:#ffffff;stroke-width:0;stroke-linecap:round;stroke-linejoin:round;stroke-miterlimit:4;stroke-dasharray:none;stroke-dashoffset:0;stroke-opacity:1;color-rendering:auto;image-rendering:auto;shape-rendering:auto;text-rendering:auto;enable-background:accumulate" /><path
           style="color:#000000;clip-rule:nonzero;display:inline;overflow:visible;visibility:visible;opacity:1;isolation:auto;mix-blend-mode:normal;color-interpolation:sRGB;color-interpolation-filters:linearRGB;solid-color:#000000;solid-opacity:1;fill:#ffffff;fill-opacity:1;fill-rule:nonzero;stroke:#ffffff;stroke-width:0;stroke-linecap:round;stroke-linejoin:round;stroke-miterlimit:4;stroke-dasharray:none;stroke-dashoffset:0;stroke-opacity:1;color-rendering:auto;image-rendering:auto;shape-rendering:auto;text-rendering:auto;enable-background:accumulate"
           d="m 35.335938,34.175781 0.121093,3.164063 c 0.146154,3.798153 0.226849,4.16394 0.951172,4.3125 0.293596,0.06021 2.226912,0.117631 4.294922,0.128906 2.81145,0.01533 3.804044,-0.03332 3.939453,-0.195312 0.151897,-0.181732 0.599828,-5.388232 0.595703,-6.933594 l -0.002,-0.476563 -4.949219,0 z M 38.4375,37.84375 c 0.862945,0 1.5625,0.664577 1.5625,1.484375 0,0.819798 -0.699555,1.484375 -1.5625,1.484375 -0.862945,0 -1.5625,-0.664577 -1.5625,-1.484375 0,-0.819798 0.699555,-1.484375 1.5625,-1.484375 z"
           id="path25649"
           transform="matrix(0.96980203,0,0,1.0199216,90.100479,-58.656225)"
           inkscape:connector-curvature="0"
           sodipodi:nodetypes="cccscccccsssss" /></g></g></g><path
     inkscape:connector-curvature="0"
     style="color:#000000;clip-rule:nonzero;display:inline;overflow:visible;visibility:visible;opacity:1;isolation:auto;mix-blend-mode:normal;color-interpolation:sRGB;color-interpolation-filters:linearRGB;solid-color:#000000;solid-opacity:1;fill:#ffffff;fill-opacity:1;fill-rule:nonzero;stroke:#ffffff;stroke-width:0;stroke-linecap:round;stroke-linejoin:round;stroke-miterlimit:4;stroke-dasharray:none;stroke-dashoffset:0;stroke-opacity:1;color-rendering:auto;image-rendering:auto;shape-rendering:auto;text-rendering:auto;enable-background:accumulate"
     d="m 18.486335,34.570928 0.121093,3.164063 c 0.146154,3.798153 0.226849,4.16394 0.951172,4.3125 0.293596,0.06021 2.226912,0.117631 4.294922,0.128906 2.81145,0.01533 3.804044,-0.03332 3.939453,-0.195312 0.151897,-0.181732 0.599828,-5.388232 0.595703,-6.933594 l -0.002,-0.757813 -4.949219,0.125 -4.951171,0.3125 z m 2.976562,3.511719 c 0.862945,0 1.5625,0.664577 1.5625,1.484375 0,0.819798 -0.699555,1.484375 -1.5625,1.484375 -0.862945,0 -1.5625,-0.664577 -1.5625,-1.484375 0,-0.819798 0.699555,-1.484375 1.5625,-1.484375 z"
     id="path25649-4"
     sodipodi:nodetypes="cccsccccccsssss" /></svg>