<?xml version="1.0" encoding="UTF-8" standalone="no"?>
<!-- Created with Inkscape (http://www.inkscape.org/) -->

<svg
   xmlns:dc="http://purl.org/dc/elements/1.1/"
   xmlns:cc="http://creativecommons.org/ns#"
   xmlns:rdf="http://www.w3.org/1999/02/22-rdf-syntax-ns#"
   xmlns:svg="http://www.w3.org/2000/svg"
   xmlns="http://www.w3.org/2000/svg"
   xmlns:sodipodi="http://sodipodi.sourceforge.net/DTD/sodipodi-0.dtd"
   xmlns:inkscape="http://www.inkscape.org/namespaces/inkscape"
   id="svg2"
   xml:space="preserve"
   viewBox="0 0 92 92"
   version="1.1"
   inkscape:version="0.91 r13725"
   sodipodi:docname="motioneye-logo.svg"
   width="92"
   height="92"><defs
     id="defs8"><filter
       id="filter4285"
       inkscape:label="Drop Shadow"
       style="color-interpolation-filters:sRGB"><feFlood
         id="feFlood4287"
         result="flood"
         flood-color="rgb(0,0,0)"
         flood-opacity="0.588235" /><feComposite
         id="feComposite4289"
         result="composite1"
         operator="in"
         in2="SourceGraphic"
         in="flood" /><feGaussianBlur
         id="feGaussianBlur4291"
         result="blur"
         stdDeviation="0.6"
         in="composite1" /><feOffset
         id="feOffset4293"
         result="offset"
         dy="-1"
         dx="0" /><feComposite
         id="feComposite4295"
         result="composite2"
         operator="over"
         in2="offset"
         in="SourceGraphic" /></filter><filter
       y="-0.16"
       x="-0.1"
       id="filter4315"
       inkscape:label="Drop Shadow"
       style="color-interpolation-filters:sRGB"><feFlood
         id="feFlood4317"
         result="flood"
         flood-color="rgb(0,0,0)"
         flood-opacity="0.588235" /><feComposite
         id="feComposite4319"
         result="composite1"
         operator="in"
         in2="SourceGraphic"
         in="flood" /><feGaussianBlur
         id="feGaussianBlur4321"
         result="blur"
         stdDeviation="0.6"
         in="composite1" /><feOffset
         id="feOffset4323"
         result="offset"
         dy="-1"
         dx="0" /><feComposite
         id="feComposite4325"
         result="composite2"
         operator="over"
         in2="offset"
         in="SourceGraphic" /></filter><filter
       id="filter4327"
       inkscape:label="Drop Shadow"
       style="color-interpolation-filters:sRGB"><feFlood
         id="feFlood4329"
         result="flood"
         flood-color="rgb(0,0,0)"
         flood-opacity="0.588235" /><feComposite
         id="feComposite4331"
         result="composite1"
         operator="in"
         in2="SourceGraphic"
         in="flood" /><feGaussianBlur
         id="feGaussianBlur4333"
         result="blur"
         stdDeviation="0.6"
         in="composite1" /><feOffset
         id="feOffset4335"
         result="offset"
         dy="-1"
         dx="0" /><feComposite
         id="feComposite4337"
         result="composite2"
         operator="over"
         in2="offset"
         in="SourceGraphic" /></filter><filter
       id="filter4339"
       inkscape:label="Drop Shadow"
       style="color-interpolation-filters:sRGB"><feFlood
         id="feFlood4341"
         result="flood"
         flood-color="rgb(0,0,0)"
         flood-opacity="0.588235" /><feComposite
         id="feComposite4343"
         result="composite1"
         operator="in"
         in2="SourceGraphic"
         in="flood" /><feGaussianBlur
         id="feGaussianBlur4345"
         result="blur"
         stdDeviation="0.2"
         in="composite1" /><feOffset
         id="feOffset4347"
         result="offset"
         dy="-0.5"
         dx="0" /><feComposite
         id="feComposite4349"
         result="composite2"
         operator="over"
         in2="offset"
         in="SourceGraphic" /></filter></defs><sodipodi:namedview
     pagecolor="#ffffff"
     bordercolor="#666666"
     borderopacity="1"
     objecttolerance="10"
     gridtolerance="10"
     guidetolerance="10"
     inkscape:pageopacity="0"
     inkscape:pageshadow="2"
     inkscape:window-width="1280"
     inkscape:window-height="1001"
     id="namedview6"
     showgrid="false"
     showguides="true"
     inkscape:guide-bbox="true"
     inkscape:zoom="2.8284272"
     inkscape:cx="84.377507"
     inkscape:cy="44.329313"
     inkscape:window-x="1912"
     inkscape:window-y="-8"
     inkscape:window-maximized="1"
     inkscape:current-layer="svg2"><sodipodi:guide
       position="30.915254,58.033898"
       orientation="0,1"
       id="guide25577" /><sodipodi:guide
       position="30.915254,5.9661017"
       orientation="0,1"
       id="guide25579" /></sodipodi:namedview><metadata
     id="metadata8"><rdf:RDF><cc:Work
         rdf:about=""><dc:format>image/svg+xml</dc:format><dc:type
           rdf:resource="http://purl.org/dc/dcmitype/StillImage" /><dc:title></dc:title></cc:Work></rdf:RDF></metadata><g
     inkscape:groupmode="layer"
     id="layer1"
     inkscape:label="Layer 1"
     style="display:inline"
     transform="translate(0,28)" /><rect
     style="color:#000000;clip-rule:nonzero;display:inline;overflow:visible;visibility:visible;opacity:1;isolation:auto;mix-blend-mode:normal;color-interpolation:sRGB;color-interpolation-filters:linearRGB;solid-color:#000000;solid-opacity:1;fill:none;fill-opacity:1;fill-rule:nonzero;stroke:#ffffff;stroke-width:0;stroke-linecap:round;stroke-linejoin:round;stroke-miterlimit:4;stroke-dasharray:none;stroke-dashoffset:0;stroke-opacity:1;color-rendering:auto;image-rendering:auto;shape-rendering:auto;text-rendering:auto;enable-background:accumulate"
     id="rect25703"
     width="93.529831"
     height="93.137383"
     x="-0.17677669"
     y="0.18361515" /><g
     id="g25691"
     transform="matrix(0.87327941,0,0,0.87327941,-4.8707827,93.950767)"
     style="fill:#999999"><g
       id="g25680"
       style="fill:#999999"><g
         id="g25653"
         transform="matrix(1.1807656,0,0,1.1227421,-100.80997,-9.6649947)"
         style="fill:#999999" /></g></g><g
     id="g25584"
     style="fill:#808080"
     transform="matrix(1.4535292,0,0,1.4535292,0.08017338,0.43062654)"><path
       style="color:#000000;clip-rule:nonzero;display:inline;overflow:visible;visibility:visible;opacity:1;isolation:auto;mix-blend-mode:normal;color-interpolation:sRGB;color-interpolation-filters:linearRGB;solid-color:#000000;solid-opacity:1;fill:#808080;fill-opacity:1;fill-rule:nonzero;stroke:#ffffff;stroke-width:0;stroke-linecap:round;stroke-linejoin:round;stroke-miterlimit:4;stroke-dasharray:none;stroke-dashoffset:0;stroke-opacity:1;color-rendering:auto;image-rendering:auto;shape-rendering:auto;text-rendering:auto;enable-background:accumulate"
       d="m 136.77408,-6.9511195 c -0.24429,0.04639 1.43307,-2.7611532 1.85739,-3.8153085 0.508,-1.460466 1.71306,-3.616368 1.94408,-6.057331 0.42216,-4.460645 0.38605,-12.001664 -0.12202,-14.625215 -0.51029,-2.234937 -1.79855,-3.735498 -3.11816,-5.144966 -1.38641,-1.219219 -4.30907,-2.59443 -8.09721,-3.869895 -2.38483,-0.705795 -4.38065,-0.862224 -5.93818,-2.025711 -1.27107,-1.402707 -1.61819,-2.958296 -1.74054,-2.999081 -3.56578,5.410579 -7.44078,5.093407 -11.51685,6.646299 -4.93905,2.00374 -6.44691,3.119073 -8.2261,6.406411 -0.7812,3.611386 -1.24264,6.229755 -0.83508,11.943867 -0.0795,3.162255 0.84731,7.274434 2.17978,10.107303 0.62475,1.3282232 2.97965,4.5605678 2.9127,4.6275228 -0.81957,1.236493 -5.18678,-1.5724134 -6.091207,-2.4447822 -1.2349,-1.1911295 -2.098126,-3.0873416 -3.202822,-4.6319796 -1.805286,-2.524235 -2.925005,-7.455591 -3.520192,-10.583529 -0.436107,-2.291912 -0.321683,-6.624622 0.232029,-8.785881 0.878166,-3.427675 2.915313,-6.749434 5.442338,-8.874242 5.350794,-4.499127 11.687234,-6.631185 20.831294,-7.009226 13.85164,-0.572665 25.54014,5.434848 28.54137,14.66935 0.4179,1.285845 0.553,2.469031 0.64729,5.669028 0.11244,3.815924 0.0819,4.173915 -0.54138,6.346784 -0.78259,2.72822 -3.23157,6.133931 -4.3772,8.734187 -3.04334,4.3154096 -6.61617,6.2623066 -7.26133,5.7163955 z"
       id="path25635"
       inkscape:connector-curvature="0"
       sodipodi:nodetypes="ccsccccccccscssssssssscc"
       transform="matrix(1.0311383,0,0,0.98046756,-92.906054,57.510526)" /><path
       style="color:#000000;clip-rule:nonzero;display:inline;overflow:visible;visibility:visible;opacity:1;isolation:auto;mix-blend-mode:normal;color-interpolation:sRGB;color-interpolation-filters:linearRGB;solid-color:#000000;solid-opacity:1;fill:#808080;fill-opacity:1;fill-rule:nonzero;stroke:#ffffff;stroke-width:0;stroke-linecap:round;stroke-linejoin:round;stroke-miterlimit:4;stroke-dasharray:none;stroke-dashoffset:0;stroke-opacity:1;color-rendering:auto;image-rendering:auto;shape-rendering:auto;text-rendering:auto;enable-background:accumulate"
       d="m 113.23115,-50.860196 c 2.16594,-2.557333 4.88465,-4.408415 8.28338,-4.413358 3.30413,-0.0048 6.19147,2.43528 8.32132,4.632955 l 1.73654,2.38898 c -3.5974,-1.1875 -5.4448,-1.25 -10.2297,-1.5 -3.49323,-0.125 -7.11146,0.375 -10.47969,1.6875 z"
       id="path25641"
       inkscape:connector-curvature="0"
       sodipodi:nodetypes="ssscccs"
       transform="matrix(1.0311383,0,0,0.98046756,-92.906054,57.510526)" /><path
       style="color:#000000;clip-rule:nonzero;display:inline;overflow:visible;visibility:visible;opacity:1;isolation:auto;mix-blend-mode:normal;color-interpolation:sRGB;color-interpolation-filters:linearRGB;solid-color:#000000;solid-opacity:1;fill:#808080;fill-opacity:1;fill-rule:nonzero;stroke:#ffffff;stroke-width:0;stroke-linecap:round;stroke-linejoin:round;stroke-miterlimit:4;stroke-dasharray:none;stroke-dashoffset:0;stroke-opacity:1;color-rendering:auto;image-rendering:auto;shape-rendering:auto;text-rendering:auto;enable-background:accumulate"
       d="m 119.20998,0.62743786 c -0.48614,-0.2706487 -2.73788,-1.2240651 -3.61768,-2.14933066 -2.9541,-2.0277336 -5.02644,-2.7205741 -7.35461,-4.8350717 -2.82653,-2.583288 -4.20298,-7.4392475 -4.95604,-12.0781115 -0.2944,-1.81352 -0.33105,-7.913478 -0.0606,-10.089972 0.85854,-7.552078 6.37476,-8.019186 9.62499,-9.036356 1.4584,-0.45461 3.32782,-1.107002 4.15425,-1.44976 0.82643,-0.342758 2.05237,-0.811968 2.72431,-1.042689 1.45526,-0.499689 1.52115,-0.487864 5.07648,0.910991 1.325,0.521328 3.7426,1.354197 5.37243,1.850821 3.44077,1.048426 4.74551,1.658773 5.94557,2.781287 1.76755,1.65334 2.63988,2.517485 2.68625,7.209423 l 0.0269,2.721681 -1.22768,0.416104 c -0.67522,0.228856 -1.32221,0.416106 -1.43776,0.416106 -0.11554,0 -0.47573,-0.346046 -0.80042,-0.768989 l -0.59033,-0.768989 -4.60103,-0.121695 c -4.63574,-0.122613 -5.56318,-0.222516 -5.56318,-0.458602 0,-0.199627 0.82601,-1.511428 2.59261,-2.15654 1.46532,-0.452848 8.85851,-2.16462 10.70462,-3.461975 -1.09838,-0.33893 -4.61682,0.0015 -10.84883,1.124494 -3.42674,1.576008 -3.71126,2.586507 -6.06277,4.819218 -2.17099,-2.880571 -4.0436,-3.916422 -8.15273,-4.827873 -3.27191,-0.246026 -6.9067,-0.107378 -7.18876,0.889739 0,0 5.08769,0.05877 8.68022,1.400386 2.07274,0.567342 1.80424,0.91917 3.49698,2.412675 -0.29168,0.07389 -1.67697,0.212607 -4.54517,0.308261 -5.04179,0.168141 -6.37686,0.32376 -6.66378,0.776747 -0.0747,0.117933 -0.17702,0.612172 -0.22736,1.098308 -0.0778,0.751409 -0.15173,0.892425 -0.49313,0.940876 -0.2233,0.03169 -0.79348,-0.184141 -1.28429,-0.486136 -1.09164,-0.671694 -1.40771,-0.690618 -1.40771,-0.08428 0,0.49895 0.44117,1.225064 1.3323,2.192803 1.2949,1.406216 1.79254,2.241364 2.01439,3.3806 0.44751,2.297982 1.03214,2.8297 3.49852,3.181894 1.48021,0.21137 6.01239,0.09558 7.18143,-0.183466 1.39091,-0.332015 1.72992,-1.053658 2.41537,-5.141591 0.44076,-2.628643 0.76924,-3.42391 1.44652,-3.502107 0.70291,-0.08116 0.96906,0.596545 1.39009,3.539645 0.46712,3.265328 0.91787,4.273101 2.19402,4.905313 0.7884,0.390574 1.15003,0.442349 3.53772,0.506501 5.35084,0.143765 6.80468,-0.487785 7.33001,-3.184169 0.34499,-1.77071 0.94435,-2.800972 2.89604,-4.978037 l 0.4998,-0.557515 -0.0987,3.005204 c -0.0543,1.652863 -0.18647,3.482501 -0.29369,4.065864 -0.54844,2.983727 -2.2641,7.6651086 -5.53928,10.1318392 -2.87284,3.0699945 -6.00721,3.3043668 -9.64768,5.44988826 -1.75491,1.0036603 -2.78131,1.69333154 -4.15853,0.9265874 z M 121.436,-5.7577005 c 0.86245,-0.439989 1.64051,-1.38261 1.63957,-1.986348 -0.002,-1.448377 -2.61225,-3.8264025 -4.40925,-3.6537345 -1.58723,0.152513 -4.19592,2.3042515 -4.52651,3.3458385 -0.11685,0.368156 0.33973,1.031689 0.70991,1.031689 0.11218,0 0.67659,0.289097 1.25423,0.642436 0.57764,0.35334 1.36846,0.750575 1.75737,0.882745 0.96444,0.327762 2.66187,0.203056 3.57468,-0.262626 z"
       id="path25647"
       inkscape:connector-curvature="0"
       sodipodi:nodetypes="cccsccsssssscssccssccccccccsscsssssssssssssscscccccscssssss"
       transform="matrix(1.0311383,0,0,0.98046756,-92.906054,57.510526)" /><path
       id="path25649"
       d="m 35.335938,34.175781 0.121093,3.164063 c 0.146154,3.798153 0.226849,4.16394 0.951172,4.3125 0.293596,0.06021 2.226912,0.117631 4.294922,0.128906 2.81145,0.01533 3.804044,-0.03332 3.939453,-0.195312 0.151897,-0.181733 0.599828,-5.388232 0.595703,-6.933594 l -0.002,-0.476563 -4.949219,0 -4.951171,0 z m 2.904296,1.251953 a 1.5015123,2.625 0 0 1 1.501954,2.625 1.5015123,2.625 0 0 1 -1.501954,2.625 1.5015123,2.625 0 0 1 -1.501953,-2.625 1.5015123,2.625 0 0 1 1.501953,-2.625 z"
       style="color:#000000;clip-rule:nonzero;display:inline;overflow:visible;visibility:visible;opacity:1;isolation:auto;mix-blend-mode:normal;color-interpolation:sRGB;color-interpolation-filters:linearRGB;solid-color:#000000;solid-opacity:1;fill:#808080;fill-opacity:1;fill-rule:nonzero;stroke:#ffffff;stroke-width:0;stroke-linecap:round;stroke-linejoin:round;stroke-miterlimit:4;stroke-dasharray:none;stroke-dashoffset:0;stroke-opacity:1;color-rendering:auto;image-rendering:auto;shape-rendering:auto;text-rendering:auto;enable-background:accumulate"
       inkscape:connector-curvature="0" /><path
       id="path25649-4"
       d="m 28.386719,34.289062 -4.949219,0.125 -4.945312,0.3125 0.115234,3.007813 c 0.146154,3.798153 0.226849,4.16394 0.951172,4.3125 0.293596,0.06021 2.226912,0.117631 4.294922,0.128906 2.81145,0.01533 3.804044,-0.03332 3.939453,-0.195312 0.151897,-0.181732 0.599828,-5.388232 0.595703,-6.933594 l -0.002,-0.757813 z m -9.894531,0.4375 -0.0059,-0.15625 0,0.15625 0.0059,0 z m 2.80664,1.169922 a 1.5015123,2.625 0 0 1 1.5,2.625 1.5015123,2.625 0 0 1 -1.5,2.625 1.5015123,2.625 0 0 1 -1.501953,-2.625 1.5015123,2.625 0 0 1 1.501953,-2.625 z"
       style="color:#000000;clip-rule:nonzero;display:inline;overflow:visible;visibility:visible;opacity:1;isolation:auto;mix-blend-mode:normal;color-interpolation:sRGB;color-interpolation-filters:linearRGB;solid-color:#000000;solid-opacity:1;fill:#808080;fill-opacity:1;fill-rule:nonzero;stroke:#ffffff;stroke-width:0;stroke-linecap:round;stroke-linejoin:round;stroke-miterlimit:4;stroke-dasharray:none;stroke-dashoffset:0;stroke-opacity:1;color-rendering:auto;image-rendering:auto;shape-rendering:auto;text-rendering:auto;enable-background:accumulate"
       inkscape:connector-curvature="0" /></g></svg>